<svg width="12" height="10" viewBox="0 0 12 10" fill="none" xmlns="http://www.w3.org/2000/svg">
<g clip-path="url(#clip0_432_4316)">
<path fill-rule="evenodd" clip-rule="evenodd" d="M11.101 4.51063L8.92446 2.14069C8.81318 2.01936 8.6294 2.01247 8.50495 2.11979C7.68223 2.8348 6.73059 3.42794 5.66599 3.86114C4.60103 4.29372 3.5049 4.53232 2.41641 4.59413C2.25245 4.60301 2.12609 4.737 2.13081 4.90089L2.22408 8.11814C2.22917 8.2884 2.3734 8.42535 2.54311 8.41644C4.07107 8.34009 5.61013 8.01154 7.10525 7.40402C8.60037 6.7965 9.93251 5.9581 11.0806 4.94803C11.2085 4.83539 11.2164 4.63619 11.101 4.51063Z" fill="#D9D9D9"/>
</g>
<defs>
<clipPath id="clip0_432_4316">
<rect width="5" height="10" fill="white" transform="translate(3.16992 9.82996) rotate(-120)"/>
</clipPath>
</defs>
</svg>
